<?xml version="1.0" encoding="UTF-8"?>
<svg id="Layer_2" data-name="Layer 2" xmlns="http://www.w3.org/2000/svg" viewBox="0 0 28 18">
  <defs>
    <style>
      .cls-1 {
        fill: #1434cb;
      }

      .cls-2, .cls-3 {
        fill: #fff;
      }

      .cls-4 {
        opacity: .15;
      }

      .cls-4, .cls-3 {
        isolation: isolate;
      }

      .cls-3 {
        opacity: .2;
      }
    </style>
  </defs>
  <g id="Layer_1-2" data-name="Layer 1">
    <g>
      <rect class="cls-2" width="28" height="18" rx="3" ry="3"/>
      <path class="cls-4" d="M25,0H3C1.34,0,0,1.34,0,3v12c0,1.66,1.34,3,3,3h22c1.66,0,3-1.34,3-3V3c0-1.66-1.34-3-3-3ZM27,15c0,1.1-.9,2-2,2H3c-1.1,0-2-.9-2-2V3c0-1.1.9-2,2-2h22c1.1,0,2,.9,2,2v12Z"/>
      <path class="cls-3" d="M25,1H3c-1.11,0-2,.9-2,2v1c0-1.1.89-2,2-2h22c1.1,0,2,.9,2,2v-1c0-1.1-.9-2-2-2Z"/>
      <path class="cls-1" d="M11.39,5.62l-2.84,6.77h-1.85l-1.4-5.4c-.09-.33-.16-.45-.42-.6-.42-.23-1.12-.44-1.73-.58l.04-.2h2.98c.38,0,.72.25.81.69l.74,3.92,1.82-4.61h1.84Z"/>
      <path class="cls-1" d="M18.65,10.18c0-1.79-2.47-1.89-2.45-2.68,0-.24.24-.5.74-.57.25-.03.94-.06,1.73.3l.31-1.44c-.42-.15-.96-.3-1.64-.3-1.73,0-2.95.92-2.96,2.24-.01.98.87,1.52,1.53,1.84.68.33.91.55.91.84,0,.45-.55.66-1.05.66-.88.01-1.39-.24-1.8-.43l-.32,1.48c.41.19,1.16.35,1.95.36,1.84,0,3.04-.91,3.05-2.32"/>
      <path class="cls-1" d="M23.42,5.62h-1.49c-.34,0-.62.19-.75.5l-2.63,6.27h1.84l.36-1.01h2.25l.21,1.01h1.62s-1.42-6.77-1.42-6.77ZM21.26,10l.92-2.54.53,2.54h-1.45Z"/>
      <path class="cls-1" d="M13.89,5.62l-1.45,6.77h-1.75l1.45-6.77h1.75Z"/>
    </g>
  </g>
</svg>